<svg height="360" viewBox="0 0 360 360" width="360" xmlns="http://www.w3.org/2000/svg"><g fill="none" fill-rule="evenodd"><circle cx="180" cy="180" fill="#fff" fill-rule="nonzero" r="180"/><circle cx="180" cy="180" fill="#170a19" fill-rule="nonzero" r="168"/><g transform="translate(23.256281 23.256281)"><path d="m191.899628 256.202041c7.030829 16.392727 17.452051 31.036836 30.401836 42.957898-19.945662 9.197618-42.15263 14.327498-65.557745 14.327498-23.332523 0-45.474318-5.098108-65.3722271-14.241164l.6248599-.577982c12.7037992-11.831124 22.9363772-26.298177 29.8708512-42.46625 11.126878 3.246639 22.873294 4.981483 35.016213 4.981483 12.142918 0 23.889334-1.734844 35.016212-4.981483zm-.991258-128.031548c1.883391 6.024868 4.088942 11.846512 6.616652 17.549195 1.53645 3.491994 3.196809 6.936901 5.005856 10.307456 3.444624 6.570105 7.360096 12.889897 11.647289 18.912287-.123907 2.503133-.17347 5.03105-.17347 7.531705 0 17.348448 2.651617 34.129355 7.632692 49.864397-7.533566 5.033529-15.686669 9.22194-24.335401 12.419011-2.87465 1.063212-5.774082 2.029768-8.723076 2.850102-10.086057 2.847624-20.717307 4.386679-31.695496 4.386679-10.97819 0-21.60944-1.539055-31.695497-4.386679-2.948994-.820334-5.848426-1.78689-8.723076-2.850102-15.463636-5.724988-29.3908201-14.622264-40.9637652-25.923539 7.1866255-17.819334 11.3499119-37.152941 11.8703227-57.39858 1.2638549.024784 2.5277097.049567 3.7915645.049567 7.0804191 0 14.048451-.451835 20.882687-1.327674l1.02413-.134552c3.147246-.399015 6.269711-.894685 9.342613-1.48701 25.326659-4.835261 48.621238-15.417814 68.495975-30.362263z" fill="#fcb2bf"/><path d="m105.452761 210.548526c0 2.206436-4.026126 3.988938-8.9918461 3.988938-4.9458872 0-8.9720129-1.782502-8.9720129-3.988938 0-2.189082 4.0261257-3.971585 8.9720129-3.971585 4.9657201 0 8.9918461 1.782503 8.9918461 3.971585zm106.655145 0c0 2.206436-4.026126 3.988938-8.991846 3.988938-4.945888 0-8.974493-1.782502-8.974493-3.988938 0-2.189082 4.028605-3.971585 8.974493-3.971585 4.96572 0 8.991846 1.782503 8.991846 3.971585z" fill="#fff"/><path d="m71.585606 227.77537c11.9198857 11.031134 25.995759 19.777231 41.508957 25.554264-7.00131 16.040456-17.5093665 30.210494-30.558543 41.513022-13.6898773-7.371662-26.1575792-16.719156-37.0218718-27.660819l-.2216787.249607c10.556905-11.824207 19.4534516-25.182512 26.2931365-39.656074zm153.149466 13.484701c5.832364 15.388409 13.869937 29.715323 23.77723 42.563744-5.532968 4.007905-11.341383 7.660015-17.388868 10.926227l-.510544-.446406c-12.763247-11.212693-23.052583-25.187519-29.940622-40.974002 8.475262-3.174766 16.529238-7.214476 24.062804-12.069563z" fill="#633a82"/><path d="m228.733471 192.659206c.555032.589038 1.114548 1.173875 1.678454 1.75449l.992919 1.012805.500769.50502c3.718471 3.736905 7.619858 7.295333 11.678901 10.665656l-.014127-.032388c.398788.936286.805008 1.865142 1.216181 2.784089l.160073.356681.530995 1.166642c1.387091 3.024353 2.84849 5.97192 4.408967 8.892241 6.199799 11.609453 13.727243 22.39656 22.391605 32.15821.031425.035383.065216.070952.101283.1067 1.542444 1.738607 3.120372 3.444247 4.73321 5.116185-5.215052 6.248316-10.90925 12.083736-17.02479 17.450714l-.736356.641776-.282925-.379307c-8.797372-11.847689-15.930982-25.003174-21.105449-39.07113l-.285453-.782489c-.997384-2.712533-1.904742-5.452465-2.727292-8.221536l-.304491-1.039771c-3.120954-10.611243-5.122328-21.680722-5.912474-33.084588zm-172.6610633-34.894739c5.0585332 1.093498 10.2024224 1.94554 15.4231142 2.561259l.003797-.089763c-.6068521 17.046352-3.9680699 33.414022-9.6452336 48.662111-1.0282085 2.840233-2.1581858 5.639367-3.3916717 8.4061l-.4674126 1.036024c-5.9723183 13.407546-13.8154866 25.83559-23.1521137 36.940828-7.6869566-9.493723-14.2847278-19.904218-19.6064089-31.041229l-.3683094-.777399.369784-.363274c10.5765979-10.440519 19.762865-22.307338 27.2542107-35.274752 1.8022885-3.086672 3.4816937-6.253225 5.0568343-9.468004l.4694329-.965849c3.0976834-6.317313 5.7988633-12.887419 8.0539768-19.626052z" fill="#61d4b3"/><path d="m268.436931 223.688597.373317.210489c.672784.377333 1.348442.750076 2.026937 1.118186l.669232.361087.413767.220962c1.335799.7121 2.682483 1.406143 4.039743 2.081922l1.143177.56352.861787.417649.853032.407299 1.311387.614473.512738.236321c.692769.317984 1.388099.631215 2.085978.93972l.803027.352383.719108.311248.860718.36712.791446.33246.93134.384938 1.321142.534534 1.132683.447601 1.232172.475821 1.260921.475059.881125.325092c-2.248057 3.902743-4.659375 7.699555-7.224628 11.38111l.238938.265408c-6.422682-7.061988-12.205814-14.689732-17.239087-22.824402zm-35.870915-141.0181272c1.929857 1.7348448 3.89766 3.412765 5.90175 5.0171577l.861112.6830467c.289943.2304865.576858.455741.862671.6785171l1.71708 1.3289462c1.68514 1.311047 3.444624 2.5997889 5.204108 3.8166586.569974.4213195 1.139948.8178555 1.709921 1.2119131l.520411.3469689c2.750743 1.8860242 5.57583 3.6927412 8.475262 5.4052809 4.088942 2.428783 8.27701 4.708864 12.539422 6.7882 3.419843 1.660494 6.864467 3.174766 10.383435 4.60973 9.174132 3.699158 18.778387 6.609692 28.695441 8.637735 2.650648 11.420646 4.050808 23.321358 4.050808 35.549095 0 3.136863-.092146 6.252204-.273879 9.343464l-.072698 1.157181-.50297-.150471c-10.535755-3.190818-20.621422-7.506221-30.092734-12.743158-2.565017-1.422318-5.071321-2.901392-7.532829-4.463317l-.920993-.589656c-11.505917-7.328346-21.986544-16.122071-31.166792-26.117738l-.766083-.840285-.336783-.383973c-2.468627-2.849307-9.715947-11.815036-10.611258-13.096649-.715837-.953625-1.414337-1.929542-2.055866-2.902983-2.161537-3.103995-4.216625-6.2805698-6.124618-9.5464594l.669079-.8708303.763958-1.011645.479077-.6412807.630562-.8558951.610774-.8404826.662381-.9245035.440499-.6225028.655353-.9375605.610663-.8862701.687042-1.0120195c.30859-.4582346.615117-.9182106.919488-1.3798336l.407365-.6207571c.318674-.4879588.634918-.9776514.948796-1.4691247l.47317-.745071zm-26.370891-74.71007653c5.168418 1.71698247 10.217369 3.69574523 15.131131 5.92056823l.980225.4479123-.558795.9294477c-.828291 1.3632327-1.675605 2.7087106-2.535601 4.0541885-1.67194 2.5735485-3.398372 5.1074658-5.23379 7.5695516-2.095498 2.8831669-4.299981 5.6969793-6.596112 8.4141908-2.038528 2.4249316-4.153841 4.7755548-6.338508 7.0741621-.465667.4904356-.939039.9797703-1.41498 1.4636008l-.715195.7210669c-2.49924 2.5363943-5.072789 4.9811415-7.735507 7.3144261-.391358.3533778-.783817.7012513-1.18178 1.0458222l-.601623.5146547c-2.894932 2.4930477-5.883524 4.8778665-8.952421 7.1258383l-.838952.6096688c-25.941072 18.9412178-57.873879 30.1122511-92.3579426 30.1122511-4.6665692 0-9.2959841-.2031097-13.8535676-.6266677-2.0211891-.1634786-4.0225627-.3665883-6.0065977-.6241908-1.4514913-.1832941-2.8856439-.3839269-4.3173196-.6217138-.8074848-.1114627-1.6174467-.2402639-2.4249316-.4062194-3.1259078-.5152051-6.2121844-1.1393959-9.2786454-1.8552337-2.2058987-.520159-4.3826806-1.0803535-6.5443842-1.6930623l-1.0796603-.3107883c-2.9574753-.8421621-5.8802734-1.7809252-8.7659173-2.8088585-4.4893057-1.5940819-8.889593-3.3854478-13.1842639-5.3527575 6.336644-10.7055219 13.9130949-20.5889754 22.5295522-29.4564589l.4029568.1271169c.7682254.2255298 1.5364509.4485813 2.3046764.6468492 2.4719513.6917694 4.9439027 1.3114343 7.4490573 1.8706168l1.0757674.2359805c2.0179194.446103 4.0540457.8721768 6.1083787 1.2360824l1.0286838.176577c3.6676571.6418926 7.3848771 1.162346 11.1020972 1.5365768 5.7245189.5923256 11.5233822.9169895 17.3718084.9169895 36.255286 0 69.834174-11.6755057 97.192914-31.4527368l.339701-.2358976.127527-.0924463.585128-.4358878 2.867883-2.2073355 1.930662-1.4966338 1.98899-1.5536038.516077-.4113573.811432-.7033135 2.867956-2.5140748 2.174257-1.9223 1.606277-1.43447426 1.105393-1.00013283.862768-.79603873z" fill="#ed6663"/><path d="m214.302075 106.83438c1.908173 3.145026 3.940253 6.218179 6.046678 9.216983 1.561232 2.205731 3.147246 4.389157 4.807604 6.518059l.350038.461903c.12081.158305.244717.320017.368625.482349 1.401923 1.782287 2.858466 3.550008 4.354024 5.282873l.813956.93466 1.600677 1.7597 1.625941 1.766526c1.858967 2.010109 4.081368 4.379321 5.483023 5.768232 9.193925 9.073238 19.453452 17.100613 30.530768 23.844203 2.725961 1.658016 5.501485 3.246638 8.301791 4.73117 10.148467 5.421674 20.912369 9.815261 32.160541 13.029908l.894254.252685c-2.231646 14.436821-6.433316 28.223043-12.321711 41.075369l-.335498.726136-.455262-.161263c-13.134758-4.697622-25.468786-11.120877-36.724327-19.010683-2.519055-1.726433-4.961326-3.544512-7.368919-5.456716-.403742-.312095-.8273-.641529-1.231042-.990779-5.018296-4.005224-9.774035-8.339882-14.239972-12.951958-4.63543-4.760458-8.972054-9.801748-12.945681-15.111033l-.593314-.798401c-2.865828-3.841746-5.548362-7.809816-8.047602-11.906687-2.774182-4.520429-5.308099-9.186998-7.624045-13.999707-1.580292-3.309202-3.049122-6.687759-4.408967-10.123285-1.58148-4.030937-3.017334-8.117698-4.254703-12.308334 4.651954-4.088673 9.076344-8.45153 13.213123-13.03191zm-213.04627242 28.20362c1.63144658 1.051233 3.28010251 2.071487 4.94596779 3.055025l1.0015843.585671c7.57516343 4.468996 15.51901443 8.318085 23.78711293 11.518378l.9200097.352917c1.897518.740093 3.8309109 1.442514 5.7849179 2.092001l.9783962.320229-.3444756.963721c-.7317755 2.025306-1.5012468 4.029813-2.3271319 5.997925-1.7338632 4.285119-3.6906518 8.443914-5.7712877 12.506108-5.1820315 9.970927-13.9665677 24.226835-22.0086579 34.534805-5.33291981-15.765353-8.2222383-32.655789-8.2222383-50.221061 0-7.316615.50130954-14.516142 1.47145433-21.566108zm236.14620342-112.7198659c1.632128.9814197 3.244916 1.9917227 4.837656 3.0302017l.951843.6256642-.263485.9980688c-.566315 2.1082149-1.170759 4.2029557-1.814765 6.2856557-.880693 2.8424349-1.851412 5.6535563-2.906938 8.424666l-.399787 1.0372736c-2.039839 5.3595316-4.389048 10.5896106-7.018717 15.6448059l-.496342.9457886c-1.46883 2.8286741-3.031784 5.6028553-4.683908 8.3225437-3.011968 4.9786645-6.303831 9.7913736-9.828528 14.3861112-2.041004 2.6429031-4.151364 5.2337902-6.338508 7.7330302-4.188519 4.7953704-8.671794 9.3529539-13.412671 13.5959653-2.553733 2.313469-5.181774 4.520429-7.881647 6.650604-19.951813 15.708801-43.762709 26.676725-69.76075 31.234308-3.177924.567221-6.373186 1.045272-9.60808 1.394522-5.788626.661345-11.6837613.993256-17.6556818.993256-.9511478 0-1.9022957-.011147-2.8450838-.031349l-.939692-.023144c-3.0862766-.05697-6.1552146-.222926-9.204337-.478051-6.5961113-.535021-13.0634213-1.488646-19.40193-2.831151-3.0119682-.624191-5.9892591-1.340029-8.9293958-2.167329-3.160585-.844639-6.2642003-1.800741-9.3331383-2.84849-3.1779237-1.082426-6.3186931-2.276315-9.4049697-3.564327-9.2191709-3.806531-17.9659741-8.47988-26.17281427-13.913827 2.39686504-9.383794 5.64459557-18.4266193 9.65263737-27.0442916l-.1777751-.0926669c6.9388108 3.6406958 14.1502177 6.7882 21.6342208 9.4152505 2.8746501 1.040907 5.7740818 1.98268 8.7478578 2.827797 3.5189683 1.013645 7.1122811 1.930635 10.7551567 2.726185 2.6653845.614631 5.3895102 1.135268 8.1375675 1.591502l2.9234595.466158 1.5162383.231166c3.6669833.548056 9.2861521 1.304508 12.2218445 1.234991l.1558275-.00456c.198604-.008435.3969092-.012628.5950142-.013347l.2635068.001313.1466383.009875c.6793273.041205 1.3589068.075293 2.0399554.104427.7888262.058398 1.5806945.122512 2.3820266.143088 1.7347027.052046 3.5189683.099134 5.2784525.099134 34.099299 0 65.819576-10.3074564 92.23662-27.9805685 3.122465-2.0818138 6.195367-4.3098502 9.193925-6.6171938 1.809047-1.3853975 3.568531-2.8005352 5.303234-4.2602832 2.577272-2.1809478 5.104982-4.413941 7.558347-6.7435897 1.709921-1.6109274 3.395061-3.2689434 5.005856-4.9566995 2.180769-2.2305148 4.311976-4.5353801 6.344056-6.887334 2.8594-3.2737094 5.570991-6.6698991 8.154264-10.1749242l.643157-.8785157c1.809047-2.4560446 3.568531-4.9839614 5.204108-7.5614451 2.195992-3.3712383 4.267894-6.8065959 6.196809-10.3419742z" fill="#b52b65"/><path d="m253.127384 33.1274232c25.144822 19.6333362 44.144909 46.7711646 53.632814 78.0460368l.383524.09325c-10.105946-2.3531-19.84035-5.659825-29.084318-9.848343-1.080267-.491849-2.152422-.993703-3.21727-1.5061862-1.761286-.8510977-3.500091-1.731694-5.216619-2.6406791l-1.027246-.5487888c-.644318-.3494473-1.288636-.6691545-1.908173-1.0409069-2.800306-1.5638387-5.526267-3.1722877-8.202666-4.9096109-1.288636-.8153771-2.577272-1.6604943-3.841127-2.5254384-1.486888-.9938182-2.924213-2.0074633-4.336757-3.0731537-1.065603-.7435049-2.081643-1.5117933-3.122465-2.3073436-1.511669-1.162346-2.973776-2.3519539-4.435882-3.5415618-1.85861-1.5390552-3.692439-3.125199-5.476704-4.7584315 2.648519-4.8327821 5.035671-9.7766542 7.181876-14.866332l.426034-1.01989c1.338199-3.1722877 2.552491-6.3693589 3.667657-9.6432589 1.689532-4.9509644 3.184526-10.0143373 4.404235-15.1638731zm-96.383665-33.1274232c9.630621 0 19.058382.86854892 28.209225 2.53158872l-.165077.14012441-.57731.47384322-.447205.350459c-2.526726 1.95630357-10.942238 8.20004615-13.99114 10.15666955-24.48958 15.7831096-53.628391 24.9502924-84.8602222 24.9502924-2.299315 0-4.6113686-.0545939-6.9034044-.1497434l-1.1615368-.0508893c-4.245488-.2204484-8.3968521-.6068522-12.5308775-1.1592115-2.5509016-.339318-5.0877748-.7300738-7.5879036-1.1904399 27.1392259-22.5169122 61.9966125-36.0526932 100.0154515-36.0526932z" fill="#fabf55"/><path d="m245.039282 27.2167832c2.761663 1.8862026 5.459907 3.8584234 8.090875 5.9128049-1.249235 5.404075-2.805845 10.7146466-4.575988 15.9018332-.991306 2.9102715-2.060937 5.7598359-3.226299 8.5852479l-.441532 1.0584688c-2.255221 5.4501499-4.783051 10.7317639-7.608272 15.8869762 1.78435 1.63331 3.618266 3.2195291 5.476964 4.7586574 1.462176 1.1896644 2.924352 2.3793287 4.436094 3.54173 1.040871.795588 2.056959 1.5639129 3.122613 2.3074531 1.41261 1.065741 2.850004 2.0794342 4.336962 3.0732996 1.263915.8649852 2.552613 1.7101425 3.84131 2.5255583 2.676525 1.7374057 5.402616 3.345931 8.203055 4.909844.495653.2974161 1.007167.5615216 1.521853.8341926l.386411.2067637c3.122613 1.6828794 6.319574 3.271577 9.590883 4.7586571 9.268708 4.186132 19.008287 7.507278 29.119606 9.864301l-.541882-.130403c.994573 3.281472 1.884434 6.608462 2.665695 9.977083-9.916772-2.026294-19.518744-4.936387-28.690807-8.63471-3.519135-1.435032-6.963923-2.949376-10.383928-4.609949-4.262614-2.079434-8.450881-4.359624-12.540017-6.788522-2.577395-1.5223302-5.096046-3.1190752-7.555953-4.7797911l-.919711-.6257468-.520436-.3469854c-.570001-.3940763-1.140002-.7906311-1.710002-1.2119706-1.508201-1.0430807-3.016402-2.1389679-4.477783-3.256446l-2.01558-1.5567377c-.42781-.331495-.85593-.6654685-1.290866-1.0112147-2.302307-1.8092812-4.557528-3.7177011-6.763183-5.7004751-3.643049 5.8491831-7.608272 11.448041-11.945234 16.776746 2.056959 3.5714714 4.287397 7.0636324 6.641748 10.4368264.644349.964124 1.338263 1.955511 2.056959 2.899807.552299.805856 1.136967 1.588242 1.730884 2.365195l1.342164 1.746582.322175.423818c.966523 1.239234 1.957829 2.478468 2.9987 3.717701 1.536523 1.831588 3.122613 3.690438 4.760745 5.477413 9.315796 10.236071 19.997115 19.257692 31.744089 26.742664 2.775656 1.782018 5.576094 3.442591 8.475664 5.053595 9.979351 5.512049 20.618354 10.008623 31.779189 13.260001l.310794.089626c-.292816 3.102488-.676062 6.178655-1.147074 9.225839l-.005557-.001366c-11.568163-3.235452-22.630026-7.716395-33.043877-13.279847-2.800439-1.484602-5.576095-3.0733-8.302186-4.731395-11.077841-6.743909-21.337856-14.771665-30.532217-23.845335l-.692609-.697326c-2.882699-2.939878-7.783707-8.326382-8.080446-8.668802-1.759568-2.007559-3.46957-4.067165-5.105225-6.146599l-.547154-.716936c-.058472-.077103-.115782-.153006-.171543-.22736-1.660437-2.129004-3.246526-4.312534-4.807832-6.51837-2.106525-2.998945-4.138702-6.072245-6.046966-9.21742-4.857398 5.378274-10.111318 10.456654-15.66263 15.143436 1.387828 4.808227 2.973917 9.514836 4.807833 14.124786 1.363045 3.445069 2.825221 6.843048 4.41131 10.13941 2.304786 4.830533 4.857398 9.49253 7.633054 14.000862 2.503047 4.116735 5.179573 8.079804 8.05436 11.923907 3.924556 5.344365 8.260085 10.442577 12.870793 15.227814l.66053.681469c4.460876 4.637212 9.243926 8.97453 14.25002 12.964863.396522.346985.817827.693971 1.239132.988908 2.403917 1.90842 4.857398 3.744964 7.360445 5.477413 11.3004 7.897078 23.691769 14.34338 36.877522 19.074994l.256561.090896c-1.388262 2.780387-2.85673 5.513729-4.402373 8.196998-11.668316-4.265179-22.708218-9.818931-32.979536-16.482416 6.351899 11.371316 14.079376 21.841319 22.950417 31.247584l.213285.224693c-1.839258 2.486733-3.750321 4.917139-5.730125 7.288156-10.66601-11.056452-19.801788-23.5839-27.098808-37.248568-1.561307-2.922113-3.023483-5.871489-4.411311-8.897698-.644348-1.410248-1.288697-2.847759-1.908263-4.310055-7.385228-6.121814-14.25002-12.865724-20.445681-20.174724.339729 13.590263 2.413995 26.752796 6.013407 39.278192l.231819.798626c.892175 3.12039 1.908264 6.196168 3.023483 9.244683 5.62566 15.562297 13.655236 29.989456 23.617859 42.825439l-.336192-.436536c-2.371999 1.936491-4.801772 3.80489-7.286337 5.602216-9.908813-12.850691-17.945284-27.176364-23.777081-42.563275-7.533923 4.855318-15.588282 8.895219-24.063946 12.070136 6.888366 15.787233 17.17819 29.762723 29.942043 40.975948l.504997.441362c-2.887297 1.559351-5.829088 3.030738-8.82178 4.410571-12.948401-11.921192-23.368154-26.564163-30.398316-42.955337-11.127407 3.246792-22.87438 4.981719-35.017876 4.981719-12.143495 0-23.890468-1.734927-35.017875-4.981719-6.934803 16.16884-17.167867 30.63658-29.8722691 42.468265l-.6192848.572529c-2.9974783-1.377279-5.9440373-2.84635-8.8360766-4.403613 13.0473689-11.301832 23.5539295-25.470791 30.5545745-41.509725-15.5139348-5.777307-29.5904763-14.523819-41.5109279-25.555477-6.7178666 14.215781-15.4198857 27.355728-25.7304002 39.023022l-.3374427.379638c-2.1626297-2.178058-4.2617245-4.419284-6.2942724-6.720667 10.3576947-11.785959 18.9527033-25.102795 25.4229751-39.594439 1.387828-3.100563 2.6765255-6.245738 3.8660924-9.445439 5.8487039-15.787838 9.243926-32.740555 9.6900136-50.436812-7.5339236-.592354-14.9191514-1.660574-22.1309007-3.21953-2.1424595 6.402006-4.6875131 12.651907-7.5926647 18.677456l-.4616945.949528c-1.7100024 3.546687-3.543918 7.038847-5.5265295 10.434348-7.6330542 13.21271-17.0256761 25.282846-27.8556914 35.865902l.2351619-.232666c-1.4007431-2.973662-2.7107508-5.998491-3.9264535-9.070918 10.5958262-10.858824 19.6275834-23.267347 26.7086335-36.838573l.3774737-.728141c2.1065247-4.037423 4.0643535-8.226033 5.7991386-12.513782 1.1895669-2.850237 2.2800032-5.802092 3.2713089-8.751468-1.8339156-.520478-3.6182659-1.040956-5.4273989-1.608525-.9913058-.299895-1.9826115-.619617-2.9491346-.969081-1.9755307-.635196-3.9328538-1.32684-5.8563627-2.059325l-.9588643-.369573c-8.2924495-3.152345-16.2622822-6.954586-23.86505581-11.377833l-.84323983-.494026c-1.67282844-.968668-3.32844671-1.975201-4.96685482-3.013862l-.75807778-.483325c.45896657-3.335718 1.02289316-6.637954 1.68833994-9.903269 8.7355509 5.932512 18.0512508 10.985081 27.9270611 15.061029 3.0730478 1.291282 6.2204435 2.478467 9.3926219 3.571472 2.731598.925294 5.5023588 1.789881 8.2948766 2.56417l1.04818.286067c2.5804928.715658 5.1799598 1.355412 7.8150034 1.919263l1.131531.237004c6.3443567 1.363157 12.8126267 2.302496 19.4048099 2.850237 3.0482651.247847 6.1213129.42134 9.1943608.470909 1.2639148.022306 2.5278296.047091 3.7917444.047091 5.6212867 0 11.1767155-.283214 16.6456235-.874438l1.024401-.11447c3.246527-.346986 6.443488-.817895 9.615666-1.387942 26.021776-4.56038 49.837896-15.539991 69.787924-31.255953 2.701309-2.131482 5.328269-4.337318 7.905664-6.667077 4.733485-4.23818 9.219143-8.796081 13.40741-13.6043079 2.180873-2.4784674 4.31218-5.0808582 6.344357-7.7352968 3.301512-4.298592 6.402634-8.8128396 9.268651-13.4671818l.570058-.932714c1.660437-2.699051 3.221744-5.477413 4.68392-8.325172 2.825221-5.328705 5.353051-10.8829505 7.509141-16.5809471 1.214349-3.1253474 2.329568-6.273001 3.320874-9.4677455 1.511741-4.909844 2.825221-9.889085 3.866092-14.9972064zm-54.129542 100.9521028c-19.87568 14.945159-43.171365 25.528214-68.499227 30.363704-2.688917.51831-5.415782.962614-8.163993 1.332912l-1.179064.154169c-7.162184.964124-14.4730634 1.462296-21.9078565 1.462296-1.2639148 0-2.5278296-.024785-3.7917444-.04957-.5204356 20.246601-4.6839197 39.581125-11.8708863 57.401306 11.5734945 11.301811 25.5013402 20.199509 40.9657102 25.924769 2.874786 1.063262 5.774356 2.029865 8.72349 2.850237 10.086536 2.84776 20.71829 4.386888 31.697001 4.386888s21.610466-1.539128 31.697001-4.386888c2.949135-.820372 5.848704-1.786975 8.723491-2.850237 8.649143-3.197223 16.802632-7.385833 24.336556-12.4196-4.981311-15.73579-7.633054-32.517493-7.633054-49.866765 0-2.500773.049565-5.02881.173478-7.532062-4.287397-6.022676-8.203055-12.342768-11.647842-18.913185-1.809133-3.370716-3.46957-6.815786-5.006094-10.307946-2.52783-5.702954-4.733485-11.524874-6.616966-17.550028zm-73.088973 50.317846c9.633014 0 17.464329 7.851784 17.464329 17.465759 0 1.524258-1.231697 2.758535-2.758308 2.758535s-2.75583-1.234277-2.75583-2.758535c0-6.582809-5.36792-11.951169-11.950191-11.951169-6.579791 0-11.947712 5.36836-11.947712 11.951169 0 1.524258-1.231697 2.758535-2.758308 2.758535s-2.75583-1.234277-2.75583-2.758535c0-9.613975 7.831315-17.465759 17.46185-17.465759zm64.558787 0c9.633014 0 17.461851 7.851784 17.461851 17.465759 0 1.524258-1.231698 2.758535-2.75583 2.758535-1.486437 0-2.693278-1.17017-2.755767-2.638818l-.002542-.119717c0-6.582809-5.350572-11.951169-11.947712-11.951169-6.579792 0-11.947712 5.36836-11.947712 11.951169 0 1.524258-1.231698 2.758535-2.758309 2.758535s-2.758308-1.234277-2.758308-2.758535c0-9.613975 7.831315-17.465759 17.464329-17.465759zm47.022729-160.6651043c2.714563 1.4226806 5.382282 2.9225927 8.00024 4.4968175-2.040602 3.7947156-4.2458 7.4708975-6.592727 11.0738466-1.453915 2.2912055-3.005737 4.543245-4.603248 6.7404523l-.601107.8213518c-2.775656 3.8168399-5.700008 7.5072779-8.797839 11.0539647-2.032176 2.3520656-4.163484 4.6570403-6.344356 6.887661-1.610872 1.6878363-3.296092 3.345931-5.006094 4.9569348-2.453482 2.3297594-4.981312 4.5628586-7.558707 6.7439099-1.734785 1.4598173-3.494352 2.8750222-5.303485 4.2604855-2.9987 2.3074532-6.071748 4.5355954-9.194361 6.617508-26.418298 17.6739512-58.140082 27.9818972-92.2409995 27.9818972-1.7595677 0-3.543918-.047091-5.2787031-.099139-1.8339156-.047091-3.6182659-.3222-5.4273989-.245368-4.2378321.148708-14.6465424-1.586219-15.786544-1.759712-3.0978304-.495693-6.1708782-1.068219-9.1695781-1.759712-3.6430486-.795588-7.2365319-1.712621-10.7556673-2.726314-2.9739172-.845157-5.8734865-1.786975-8.7482732-2.827931-7.1589515-2.5129507-14.0684837-5.5021042-20.7285966-8.9436013l-.7218646-.3760403c1.2945124-2.783325 2.6683368-5.5223 4.1185693-8.2140211 6.4920672 3.409241 13.2275328 6.3542677 20.2066786 8.8094572 2.8995693 1.0186501 5.7991386 1.9604677 8.7730558 2.8006681 2.503047.7460187 5.0556593 1.4152049 7.6330542 2.0075587 3.0730478.7187555 6.1460956 1.3408508 9.2687087 1.8588505.8178272.1759712 1.6356545.2998946 2.4286991.3990333 1.4373933.2478467 2.8747866.4436456 4.31218.641923 1.6059153.1982774 3.1959697.3648304 4.8082293.5123488l1.2139531.1072681c4.5600064.421339 9.1943607.619617 13.8534977.619617 34.1770005 0 65.8278955-10.9530191 91.6342595-29.5692161l.780218-.5664694c3.37044-2.4288981 6.641749-5.0065042 9.789145-7.7352968.619566-.5179997 1.214349-1.0161717 1.78435-1.5589561 2.674047-2.3297593 5.25392-4.7859205 7.756967-7.3139573.693914-.7187556 1.412611-1.4598173 2.131308-2.1785729 2.180872-2.3074531 4.287397-4.6595187 6.319574-7.0884168 2.304786-2.7263142 4.510441-5.5294608 6.616966-8.4292677 1.833915-2.4512043 3.5687-4.979241 5.229138-7.5593256 2.0502-3.15216 3.977511-6.388301 5.800553-9.7065611zm-61.029879 214.6585163c1.211871.936861 1.415089 2.666831.478305 3.861453-3.310961 4.208437-8.346794 6.966971-13.841107 7.591545-.773218.074354-1.546437.128881-2.317177.128881-6.158487 0-12.041886-2.738707-15.736978-7.427967-.934306-1.194622-.733567-2.922113.460957-3.858974 1.194523-.956688 2.921873-.736105 3.878483.458516 2.978874 3.769749 7.99736 5.772351 13.107541 5.202304 4.024701-.438689 7.719793-2.443769 10.10884-5.494763.936784-1.194621 2.664134-1.417683 3.861136-.460995zm27.565666-227.53927748c3.46373.89106144 6.883549 1.89893865 10.252607 3.01804909l-.626754.58126058c-2.836789 2.60493131-8.648064 7.66520641-8.780697 7.77795361l-.34982.2822911c-1.35566 1.0767634-5.74964 4.4741399-6.913406 5.3605928l-.270697.2038207c-.297392.2230621-.594784.4461242-.892175.6444016-27.360039 19.77817-60.940521 31.45423-97.1975285 31.45423-5.8487039 0-11.6478425-.3246792-17.3726331-.917033-3.3456569-.3368237-6.6913138-.7920934-10.0008376-1.347741l-1.1017868-.1889088c-2.0604998-.3420285-4.1027919-.7532517-6.1268764-1.1915286l-1.0105249-.2211978c-2.8747867-.6196168-5.700008-1.3160662-8.5252294-2.1066973-.5121746-.1321849-1.0243493-.2753853-1.5365239-.4229918l-.768262-.2238882-.3951715-.1239664c2.4787267-2.5508374 5.0435153-5.0175993 7.6896793-7.3955991 6.0242564 1.5430028 12.2157576 2.7459747 18.5290069 3.5788023 4.1387014.5477413 8.3021856.9418176 12.5648003 1.1673582 2.6765255.1214449 5.353051.1957989 8.0543591.1957989 30.9384045 0 59.8364935-8.9854108 84.1693765-24.5080904l.988874-.6355474c1.398896-.9117244 3.695886-2.547755 6.05301-4.2657424l.643713-.4700914c3.434374-2.5128436 6.834803-5.0755361 7.622558-5.71132057.94174-.7683249 1.883481-1.55895601 2.825221-2.35454405.627827-.52873972 1.233625-1.06849484 1.839423-1.61118741z" fill="#170a19" fill-rule="nonzero"/></g></g></svg>